<?xml version="1.0" encoding="UTF-8"?>
<svg width="86px" height="86px" enable-background="new 0 0 86 86" version="1.1" viewBox="0 0 86 86" xml:space="preserve" xmlns="http://www.w3.org/2000/svg" xmlns:cc="http://creativecommons.org/ns#" xmlns:dc="http://purl.org/dc/elements/1.1/" xmlns:rdf="http://www.w3.org/1999/02/22-rdf-syntax-ns#" xmlns:xlink="http://www.w3.org/1999/xlink"><metadata><rdf:RDF><cc:Work rdf:about=""><dc:format>image/svg+xml</dc:format><dc:type rdf:resource="http://purl.org/dc/dcmitype/StillImage"/></cc:Work></rdf:RDF></metadata><defs>
		
<linearGradient id="SVGID_2_-3-3" x1=".7169" x2="85.283" y1="85.283" y2=".7169" gradientUnits="userSpaceOnUse"><stop stop-color="#6f6f6f" offset="0"/><stop stop-color="#fff" offset="1"/></linearGradient><style id="current-color-scheme" type="text/css">
      .ColorScheme-Text {
        color:#4d4d4d;
      }
      </style><style type="text/css">
      .ColorScheme-Text {
        color:#4d4d4d;
      }
      </style><style type="text/css">
      .ColorScheme-Text {
        color:#4d4d4d;
      }
      </style><linearGradient id="linearGradient4491-6" x1="13" x2="13" y1="44.006" y2="3.172" gradientTransform="matrix(2.4588 0 0 2.4373 -15.8 -100.08)" gradientUnits="userSpaceOnUse"><stop stop-opacity=".6008" offset="0"/><stop offset="1"/></linearGradient><linearGradient id="linearGradient566" x1="9.9846" x2="12.981" y1="12.917" y2="15.914" gradientTransform="matrix(2.3765 0 0 2.3765 -15.381 -24.828)" gradientUnits="userSpaceOnUse" xlink:href="#SVGID_2_-3-3"/><linearGradient id="linearGradient3269" x1=".7169" x2="85.283" y1="85.283" y2=".7169" gradientTransform="translate(.11877 -.013992)" gradientUnits="userSpaceOnUse"><stop stop-color="#CBCBCB" offset="0"/><stop stop-color="#fff" offset="1"/></linearGradient></defs>
<path d="m85.77 1.7565c0-0.785-0.637-1.422-1.422-1.422h-82.459c-0.785 1e-3 -1.422 0.637-1.422 1.422v41.23c0 23.556 19.096 42.651 42.651 42.651h41.23c0.785 0 1.422-0.696 1.422-1.481z" fill="url(#linearGradient3269)"/><g fill="#bcbcbc" fill-rule="evenodd">
<rect x="8.3168" y="28.364" width="24.053" height="2.1216" opacity=".8" stroke-width="2.5257"/><rect x="8.3168" y="32.608" width="9.0886" height="2.1216" opacity=".8" stroke-width="1.7927"/><rect x="29.74" y="32.608" width="5.2141" height="2.1216" opacity=".8" stroke-width="1.9203"/><rect x="8.3168" y="36.851" width="6.4695" height="2.1216" opacity=".8" stroke-width="1.8456"/><rect x="32.144" y="36.851" width="2.7721" height="2.1216" opacity=".8" stroke-width=".91665"/><rect x="8.3168" y="19.878" width="18.093" height="2.1216" opacity=".8" stroke-width="2.7709"/><rect x="50.321" y="19.878" width="19.515" height="2.1216" opacity=".8" stroke-width="2.6269"/><rect x="8.3168" y="24.121" width="27.189" height="2.1216" opacity=".8" stroke-width="2.8707"/><rect transform="scale(1,-1)" x="9.6941" y="-55.946" width="3.8794" height="2.1216" opacity=".8" stroke-width="1.0844"/><rect transform="scale(1,-1)" x="30.876" y="-64.367" width="3.6878" height="2.1216" opacity=".8" stroke-width="1.0572"/><rect transform="scale(1,-1)" x="37.267" y="-55.946" width="10.856" height="2.1216" opacity=".8" stroke-width="2.7709"/><rect transform="scale(1,-1)" x="11.672" y="-59.999" width="6.0918" height="2.1216" opacity=".8" stroke-width="1.7908"/><rect transform="scale(1,-1)" x="8.3168" y="-47.459" width="5.7835" height="2.1216" opacity=".8" stroke-width="1.1077"/><rect transform="scale(1,-1)" x="55.028" y="-38.972" width="2.0329" height="2.1216" opacity=".8" stroke-width=".92881"/><rect x="14.822" y="62.311" width="13.937" height="2.1216" opacity=".8" stroke-width="1.7196"/><rect x="19.924" y="66.554" width="16.239" height="2.1216" opacity=".8" stroke-width="2.2186"/><rect x="26.273" y="70.797" width="11.452" height="2.1216" opacity=".8" stroke-width="2.4647"/><rect x="33.159" y="75.009" width="1.9026" height="2.1216" opacity=".8" stroke-width=".7594"/><rect x="54.926" y="32.608" width="5.1719" height="2.1216" opacity=".8" stroke-width="1.6563"/><rect x="55.289" y="28.327" width="2.4683" height="2.1216" opacity=".8" stroke-width="1.1442"/><rect x="30.029" y="19.878" width="7.9498" height="2.1216" opacity=".8" stroke-width="2.0535"/><rect x="53.684" y="24.121" width="23.39" height="2.1216" opacity=".8" stroke-width="2.6625"/><rect x="61.484" y="28.327" width="15.59" height="2.1216" opacity=".8" stroke-width="2.8755"/><rect x="70.696" y="32.608" width="6.3507" height="2.1216" opacity=".8" stroke-width="2.1193"/><rect transform="scale(1,-1)" x="74.601" y="-51.702" width="2.3406" height="2.1216" opacity=".8" stroke-width="1.1101"/><rect x="55.387" y="62.311" width="7.2104" height="2.1216" opacity=".8" stroke-width="1.9556"/><rect x="37.267" y="75.04" width="25.331" height="2.1216" opacity=".8" stroke-width="2.7709"/><rect x="52.34" y="70.711" width="21.081" height="2.1216" opacity=".8" stroke-width="2.5277"/><rect transform="scale(1,-1)" x="74.798" y="-38.972" width="2.2521" height="2.1216" opacity=".8" stroke-width="1.5457"/><rect transform="scale(1,-1)" x="66.217" y="-64.432" width="10.856" height="2.1216" opacity=".8" stroke-width="2.7709"/><rect x="55.36" y="66.554" width="21.712" height="2.1216" opacity=".8" stroke-width="2.7709"/></g><g transform="translate(.047169 5.8672)" fill="#006dad" stroke="#666" stroke-linecap="round" stroke-linejoin="round" stroke-opacity=".2" stroke-width=".016"><rect x="37.429" y="15.925" width="14.984" height="49.984" rx="8.8786" ry="8.8786" style="paint-order:markers fill stroke"/><rect x="16.786" y="28.529" width="14.984" height="24.984" rx="8.8786" ry="8.8786" style="paint-order:markers fill stroke"/><rect x="58.072" y="28.425" width="14.984" height="24.984" rx="8.8786" ry="8.8786" style="paint-order:markers fill stroke"/></g><rect transform="rotate(90)" x="13.706" y="-85.651" width="2.4588" height="85.303" color="#000000" color-rendering="auto" enable-background="accumulate" fill="url(#linearGradient4491-6)" image-rendering="auto" opacity=".2" shape-rendering="auto" solid-color="#000000" stroke-width="1.1131" style="isolation:auto;mix-blend-mode:normal"/><g transform="translate(-.028381 -1.5303)"><g transform="translate(0 -.56199)"><circle cx="11.916" cy="9.4481" r="3.5648" fill="url(#linearGradient566)" stroke-width="1.7824"/><path d="m14.01 8.5863a3.5648 3.5648 0 0 0-3.5648 3.5648 3.5648 3.5648 0 0 0 0.04873 0.56046 3.5648 3.5648 0 0 0 1.4134 0.29938 3.5648 3.5648 0 0 0 3.5648-3.5648 3.5648 3.5648 0 0 0-0.04525-0.56744 3.5648 3.5648 0 0 0-1.4168-0.29242z" fill="#fff" stroke-width="1.954"/></g><g transform="translate(20.742 -.56199)"><circle cx="11.916" cy="9.4481" r="3.5648" fill="url(#linearGradient566)" stroke-width="1.7824"/><path d="m14.01 8.5863a3.5648 3.5648 0 0 0-3.5648 3.5648 3.5648 3.5648 0 0 0 0.04873 0.56046 3.5648 3.5648 0 0 0 1.4134 0.29938 3.5648 3.5648 0 0 0 3.5648-3.5648 3.5648 3.5648 0 0 0-0.04525-0.56744 3.5648 3.5648 0 0 0-1.4168-0.29242z" fill="#fff" stroke-width="1.954"/></g><g transform="translate(41.484 -.56199)"><circle cx="11.916" cy="9.4481" r="3.5648" fill="url(#linearGradient566)" opacity=".90029" stroke-width="1.7824"/><path d="m14.01 8.5863a3.5648 3.5648 0 0 0-3.5648 3.5648 3.5648 3.5648 0 0 0 0.04873 0.56046 3.5648 3.5648 0 0 0 1.4134 0.29938 3.5648 3.5648 0 0 0 3.5648-3.5648 3.5648 3.5648 0 0 0-0.04525-0.56744 3.5648 3.5648 0 0 0-1.4168-0.29242z" fill="#fff" stroke-width="1.954"/></g><g transform="translate(62.225 -.56199)"><circle cx="11.916" cy="9.4481" r="3.5648" fill="url(#linearGradient566)" opacity=".80033" stroke-width="1.7824"/><path d="m14.01 8.5863a3.5648 3.5648 0 0 0-3.5648 3.5648 3.5648 3.5648 0 0 0 0.04873 0.56046 3.5648 3.5648 0 0 0 1.4134 0.29938 3.5648 3.5648 0 0 0 3.5648-3.5648 3.5648 3.5648 0 0 0-0.04525-0.56744 3.5648 3.5648 0 0 0-1.4168-0.29242z" fill="#fff" stroke-width="1.954"/></g></g></svg>
