<?xml version="1.0" encoding="UTF-8"?>
<svg width="86px" height="86px" enable-background="new 0 0 86 86" version="1.1" viewBox="0 0 86 86" xml:space="preserve" xmlns="http://www.w3.org/2000/svg" xmlns:cc="http://creativecommons.org/ns#" xmlns:dc="http://purl.org/dc/elements/1.1/" xmlns:rdf="http://www.w3.org/1999/02/22-rdf-syntax-ns#" xmlns:xlink="http://www.w3.org/1999/xlink"><metadata><rdf:RDF><cc:Work rdf:about=""><dc:format>image/svg+xml</dc:format><dc:type rdf:resource="http://purl.org/dc/dcmitype/StillImage"/></cc:Work></rdf:RDF></metadata><defs>
		
<style id="current-color-scheme" type="text/css">
      .ColorScheme-Text {
        color:#4d4d4d;
      }
      </style><style type="text/css">
      .ColorScheme-Text {
        color:#4d4d4d;
      }
      </style><style type="text/css">
      .ColorScheme-Text {
        color:#4d4d4d;
      }
      </style><linearGradient id="linearGradient3269" x1="85.624" x2=".47274" y1="85.728" y2=".2964" gradientTransform="translate(.11877 -.013992)" gradientUnits="userSpaceOnUse"><stop stop-color="#e6e6e6" offset="0"/><stop stop-color="#f3f3f3" offset="1"/></linearGradient><style type="text/css">
      .ColorScheme-Text {
        color:#4d4d4d;
      }
      </style><style type="text/css">
      .ColorScheme-Text {
        color:#4d4d4d;
      }
      </style><style type="text/css">
      .ColorScheme-Text {
        color:#4d4d4d;
      }
      </style></defs>
<path d="m85.77 1.7565c0-0.785-0.637-1.422-1.422-1.422h-82.459c-0.785 1e-3 -1.422 0.637-1.422 1.422v41.23c0 23.556 19.096 42.651 42.651 42.651h41.23c0.785 0 1.422-0.696 1.422-1.481z" fill="url(#linearGradient3269)"/><g fill="#bcbcbc" fill-rule="evenodd">
<rect x="8.33" y="6.8341" width="28.643" height="7.5591" opacity=".7" stroke-width="6.5805"/><rect x="47.928" y="6.8341" width="29.661" height="7.5591" opacity=".7" stroke-width="6.6964"/><rect x="8.33" y="19.415" width="21.609" height="7.5591" opacity=".7" stroke-width="5.7156"/><rect x="55.824" y="19.415" width="14.724" height="7.5591" opacity=".7" stroke-width="4.718"/><rect x="13.169" y="58.722" width="16.085" height="7.5591" opacity=".7" stroke-width="4.9312"/><rect x="55.169" y="58.722" width="22.418" height="7.5591" opacity=".7" stroke-width="5.8216"/><rect x="34.639" y="71.798" width="9.4165" height="7.5591" opacity=".7" stroke-width="3.7731"/><rect x="50.844" y="71.798" width="15.73" height="7.5591" opacity=".7" stroke-width="4.8766"/></g><g transform="matrix(1.0759 0 0 1.0759 -5.3313 -1.4328)" fill="#006dad" stroke="#666" stroke-linecap="round" stroke-linejoin="round" stroke-opacity=".2" stroke-width=".016"><rect x="37.429" y="15.925" width="14.984" height="49.984" rx="8.8786" ry="8.8786" style="paint-order:markers fill stroke"/><rect x="16.786" y="28.529" width="14.984" height="24.984" rx="8.8786" ry="8.8786" style="paint-order:markers fill stroke"/><rect x="58.072" y="28.425" width="14.984" height="24.984" rx="8.8786" ry="8.8786" style="paint-order:markers fill stroke"/></g></svg>
