<?xml version="1.0" encoding="UTF-8" standalone="no"?>
<svg
   width="86px"
   height="86px"
   enable-background="new 0 0 86 86"
   version="1.1"
   viewBox="0 0 86 86"
   xml:space="preserve"
   id="svg28"
   sodipodi:docname="dsnote_tray_speech_2.svg"
   inkscape:version="1.4 (e7c3feb100, 2024-10-09)"
   xmlns:inkscape="http://www.inkscape.org/namespaces/inkscape"
   xmlns:sodipodi="http://sodipodi.sourceforge.net/DTD/sodipodi-0.dtd"
   xmlns:xlink="http://www.w3.org/1999/xlink"
   xmlns="http://www.w3.org/2000/svg"
   xmlns:svg="http://www.w3.org/2000/svg"
   xmlns:rdf="http://www.w3.org/1999/02/22-rdf-syntax-ns#"
   xmlns:cc="http://creativecommons.org/ns#"
   xmlns:dc="http://purl.org/dc/elements/1.1/"><sodipodi:namedview
     id="namedview28"
     pagecolor="#505050"
     bordercolor="#ffffff"
     borderopacity="1"
     inkscape:showpageshadow="0"
     inkscape:pageopacity="0"
     inkscape:pagecheckerboard="1"
     inkscape:deskcolor="#d1d1d1"
     inkscape:zoom="20.581395"
     inkscape:cx="43.048588"
     inkscape:cy="43.000001"
     inkscape:window-width="3840"
     inkscape:window-height="2024"
     inkscape:window-x="0"
     inkscape:window-y="0"
     inkscape:window-maximized="1"
     inkscape:current-layer="svg28" /><metadata
     id="metadata1"><rdf:RDF><cc:Work
         rdf:about=""><dc:format>image/svg+xml</dc:format><dc:type
           rdf:resource="http://purl.org/dc/dcmitype/StillImage" /></cc:Work></rdf:RDF></metadata><defs
     id="defs4"><linearGradient
   id="SVGID_2_-3"
   x1=".7169"
   x2="85.283"
   y1="85.283"
   y2=".7169"
   gradientUnits="userSpaceOnUse"><stop
     stop-color="#6f6f6f"
     offset="0"
     id="stop1" /><stop
     stop-color="#fff"
     offset="1"
     id="stop2" /></linearGradient>
		
<style
   id="current-color-scheme"
   type="text/css">
      .ColorScheme-Text {
        color:#4d4d4d;
      }
      </style><style
   type="text/css"
   id="style2">
      .ColorScheme-Text {
        color:#4d4d4d;
      }
      </style><style
   type="text/css"
   id="style3">
      .ColorScheme-Text {
        color:#4d4d4d;
      }
      </style><linearGradient
   id="linearGradient4491-6"
   x1="13"
   x2="13"
   y1="44.006"
   y2="3.172"
   gradientTransform="matrix(1.656 0 0 1.9671 -6.4098 -88.64)"
   gradientUnits="userSpaceOnUse"><stop
     stop-opacity=".6008"
     offset="0"
     id="stop3" /><stop
     offset="1"
     id="stop4" /></linearGradient><linearGradient
   id="linearGradient1987"
   x1="9.9981"
   x2="13.508"
   y1="12.965"
   y2="16.458"
   gradientTransform="matrix(1.3333 0 0 1.3333 .53738 -9.8003)"
   gradientUnits="userSpaceOnUse"
   xlink:href="#SVGID_2_-3" /></defs><g
     fill-rule="evenodd"
     id="g5">

<path
   d="m8.1515 4.7935v76.379h68.847v-76.379z"
   fill="#dcdcdc"
   stroke-width="2.284"
   id="path4"
   style="opacity:1;fill:#f2f2f2;fill-opacity:1" /><rect
   x="8.1617"
   y="79.051"
   width="68.841"
   height="2.1224"
   fill="#1b1b1b"
   opacity=".427"
   stroke-width="2.2663"
   id="rect4" /><path
   d="m76.997 4.7969 1.7082 1.7822-0.03553 74.595h-1.6727z"
   fill="#1b1b1b"
   opacity=".501"
   stroke-width="2.1192"
   id="path5" /></g><rect
     transform="rotate(90)"
     x="13.462"
     y="-76.999"
     width="1.656"
     height="68.847"
     color="#000000"
     color-rendering="auto"
     enable-background="accumulate"
     fill="url(#linearGradient4491-6)"
     image-rendering="auto"
     opacity=".27027"
     shape-rendering="auto"
     solid-color="#000000"
     style="isolation:auto;mix-blend-mode:normal"
     id="rect5" /><rect
     x="36.66124"
     y="33.49324"
     width="13.561719"
     height="22.612518"
     rx="8.0358438"
     ry="8.0358438"
     style="opacity:0.19961;fill:#006dad;stroke:#666666;stroke-width:0.0144813;stroke-linecap:round;stroke-linejoin:round;stroke-opacity:0.2;paint-order:markers fill stroke"
     id="rect17" /><rect
     x="17.977673"
     y="22.180241"
     width="13.561719"
     height="45.239517"
     rx="8.0358438"
     ry="8.0358438"
     style="opacity:0.19961;fill:#006dad;stroke:#666666;stroke-width:0.0144813;stroke-linecap:round;stroke-linejoin:round;stroke-opacity:0.2;paint-order:markers fill stroke"
     id="rect18" /><rect
     x="55.344803"
     y="22.180241"
     width="13.561719"
     height="45.239517"
     rx="8.0358438"
     ry="8.0358438"
     style="opacity:0.19961;fill:#006dad;stroke:#666666;stroke-width:0.0144813;stroke-linecap:round;stroke-linejoin:round;stroke-opacity:0.2;paint-order:markers fill stroke"
     id="rect19" /><rect
     x="34.928242"
     y="31.79524"
     width="13.561719"
     height="22.612518"
     rx="8.0358438"
     ry="8.0358438"
     style="fill:#006dad;stroke:#666666;stroke-width:0.0144813;stroke-linecap:round;stroke-linejoin:round;stroke-opacity:0.2;paint-order:markers fill stroke"
     id="rect20" /><rect
     x="16.244673"
     y="20.481241"
     width="13.561719"
     height="45.239517"
     rx="8.0358438"
     ry="8.0358438"
     style="fill:#006dad;stroke:#666666;stroke-width:0.0144813;stroke-linecap:round;stroke-linejoin:round;stroke-opacity:0.2;paint-order:markers fill stroke"
     id="rect21" /><rect
     x="53.611805"
     y="20.481241"
     width="13.561719"
     height="45.239517"
     rx="8.0358438"
     ry="8.0358438"
     style="fill:#006dad;stroke:#666666;stroke-width:0.0144813;stroke-linecap:round;stroke-linejoin:round;stroke-opacity:0.2;paint-order:markers fill stroke"
     id="rect22" /><g
     transform="translate(.38263 .10448)"
     id="g28"
     inkscape:export-filename="dsnote_tray_speech_0.png"
     inkscape:export-xdpi="114.29591"
     inkscape:export-ydpi="114.29591"><g
       transform="matrix(1.2261 0 0 1.2261 -3.5849 -2.4442)"
       id="g24"><circle
         cx="15.852"
         cy="9.4298"
         r="2"
         fill="url(#linearGradient1987)"
         id="circle23" /><path
         d="m16.978 9.0461a1.8243 1.8243 0 0 0-1.8243 1.8243 1.8243 1.8243 0 0 0 0.02494 0.28682 1.8243 1.8243 0 0 0 0.7233 0.15321 1.8243 1.8243 0 0 0 1.8243-1.8243 1.8243 1.8243 0 0 0-0.02316-0.29039 1.8243 1.8243 0 0 0-0.72508-0.14965z"
         fill="#fff"
         id="path23" /></g><g
       transform="matrix(1.2261 0 0 1.2261 13.953 -2.4442)"
       id="g25"><circle
         cx="15.852"
         cy="9.4298"
         r="2"
         fill="url(#linearGradient1987)"
         id="circle24" /><path
         d="m16.978 9.0461a1.8243 1.8243 0 0 0-1.8243 1.8243 1.8243 1.8243 0 0 0 0.02494 0.28682 1.8243 1.8243 0 0 0 0.7233 0.15321 1.8243 1.8243 0 0 0 1.8243-1.8243 1.8243 1.8243 0 0 0-0.02316-0.29039 1.8243 1.8243 0 0 0-0.72508-0.14965z"
         fill="#fff"
         id="path24" /></g><g
       transform="matrix(1.2261 0 0 1.2261 31.49 -2.4442)"
       id="g26"><circle
         cx="15.852"
         cy="9.4298"
         r="2"
         fill="url(#linearGradient1987)"
         id="circle25" /><path
         d="m16.978 9.0461a1.8243 1.8243 0 0 0-1.8243 1.8243 1.8243 1.8243 0 0 0 0.02494 0.28682 1.8243 1.8243 0 0 0 0.7233 0.15321 1.8243 1.8243 0 0 0 1.8243-1.8243 1.8243 1.8243 0 0 0-0.02316-0.29039 1.8243 1.8243 0 0 0-0.72508-0.14965z"
         fill="#fff"
         id="path25" /></g><g
       transform="matrix(1.2261 0 0 1.2261 49.028 -2.4442)"
       id="g27"><circle
         cx="15.852"
         cy="9.4298"
         r="2"
         fill="url(#linearGradient1987)"
         id="circle26" /><path
         d="m16.978 9.0461a1.8243 1.8243 0 0 0-1.8243 1.8243 1.8243 1.8243 0 0 0 0.02494 0.28682 1.8243 1.8243 0 0 0 0.7233 0.15321 1.8243 1.8243 0 0 0 1.8243-1.8243 1.8243 1.8243 0 0 0-0.02316-0.29039 1.8243 1.8243 0 0 0-0.72508-0.14965z"
         fill="#fff"
         id="path26" /></g></g></svg>
