<?xml version="1.0" encoding="UTF-8"?>
<svg width="86px" height="86px" enable-background="new 0 0 86 86" version="1.1" viewBox="0 0 86 86" xml:space="preserve" xmlns="http://www.w3.org/2000/svg" xmlns:cc="http://creativecommons.org/ns#" xmlns:dc="http://purl.org/dc/elements/1.1/" xmlns:rdf="http://www.w3.org/1999/02/22-rdf-syntax-ns#" xmlns:xlink="http://www.w3.org/1999/xlink"><metadata><rdf:RDF><cc:Work rdf:about=""><dc:format>image/svg+xml</dc:format><dc:type rdf:resource="http://purl.org/dc/dcmitype/StillImage"/></cc:Work></rdf:RDF></metadata><defs><linearGradient id="SVGID_2_-3" x1=".7169" x2="85.283" y1="85.283" y2=".7169" gradientUnits="userSpaceOnUse"><stop stop-color="#6f6f6f" offset="0"/><stop stop-color="#fff" offset="1"/></linearGradient>
		
<style id="current-color-scheme" type="text/css">
      .ColorScheme-Text {
        color:#4d4d4d;
      }
      </style><style type="text/css">
      .ColorScheme-Text {
        color:#4d4d4d;
      }
      </style><style type="text/css">
      .ColorScheme-Text {
        color:#4d4d4d;
      }
      </style><linearGradient id="d-7" x1="23" x2="40" y1="21" y2="39" gradientTransform="matrix(2.4588 0 0 2.1216 -15.857 -7.6021)" gradientUnits="userSpaceOnUse"><stop offset="0"/><stop stop-opacity="0" offset="1"/></linearGradient><linearGradient id="e-5" x2="0" y1="1041" y2="1013" gradientTransform="matrix(2.4588 0 0 2.1216 -15.823 -2138.5)" gradientUnits="userSpaceOnUse"><stop stop-color="#f2f2f2" offset="0"/><stop stop-color="#fff" offset="1"/></linearGradient><linearGradient id="linearGradient4491-6" x1="13" x2="13" y1="44.006" y2="3.172" gradientTransform="matrix(2.4588 0 0 1.9671 -15.883 -89.254)" gradientUnits="userSpaceOnUse"><stop stop-opacity=".6008" offset="0"/><stop offset="1"/></linearGradient><linearGradient id="linearGradient1987" x1="9.9981" x2="13.508" y1="12.965" y2="16.458" gradientTransform="matrix(1.3333 0 0 1.3333 .53738 -9.8003)" gradientUnits="userSpaceOnUse" xlink:href="#SVGID_2_-3"/></defs><g fill-rule="evenodd" stroke-width="2.284">

<path d="m77.578 70.725-68.847 10.608 4.3915 4.1648 69.363 0.0785v-76.379l-4.9176-4.2433z" fill="url(#d-7)" opacity=".2"/><path d="m8.7654 4.9542v76.379h68.847v-76.379z" fill="url(#e-5)"/><rect x="8.7314" y="79.212" width="68.847" height="2.1556" fill="#1b1b1b" opacity=".437"/></g><rect transform="rotate(90)" x="13.623" y="-77.612" width="2.4588" height="68.847" color="#000000" color-rendering="auto" enable-background="accumulate" fill="url(#linearGradient4491-6)" image-rendering="auto" opacity=".2" shape-rendering="auto" solid-color="#000000" style="isolation:auto;mix-blend-mode:normal"/><g fill="#bcbcbc" fill-rule="evenodd"><rect x="13.288" y="27.354" width="21.269" height="2.1216" opacity=".8" stroke-width="2.375"/><rect x="13.288" y="31.598" width="19.199" height="2.1216" opacity=".8" stroke-width="2.6056"/><rect x="35.687" y="31.598" width="9.5995" height="2.1216" opacity=".8" stroke-width="2.6056"/><rect x="13.288" y="35.841" width="3.0543" height="2.1216" opacity=".8" stroke-width="1.2681"/><rect x="30.391" y="35.841" width="3.9018" height="2.1216" opacity=".8" stroke-width="1.0875"/><g><rect x="13.288" y="18.868" width="15.999" height="2.1216" opacity=".8" stroke-width="2.6056"/><rect x="48.487" y="18.868" width="19.199" height="2.1216" opacity=".8" stroke-width="2.6056"/><rect x="13.288" y="23.111" width="22.25" height="2.1216" opacity=".8" stroke-width="2.5969"/></g><rect transform="scale(1,-1)" x="13.288" y="-54.936" width="2.6311" height="2.1216" opacity=".8" stroke-width=".89302"/><rect transform="scale(1,-1)" x="38.887" y="-54.936" width="9.5995" height="2.1216" opacity=".8" stroke-width="2.6056"/><rect transform="scale(1,-1)" x="13.288" y="-58.989" width="4.6447" height="2.1216" opacity=".8" stroke-width="1.5637"/><g><rect transform="scale(1,-1)" x="13.288" y="-46.449" width="2.4223" height="2.1216" opacity=".8" stroke-width=".71689"/><rect transform="scale(1,-1)" x="52.039" y="-37.962" width="2.5194" height="2.1216" opacity=".8" stroke-width="1.034"/><rect x="13.288" y="61.301" width="18.076" height="2.1216" opacity=".8" stroke-width="1.9583"/><rect x="13.288" y="65.544" width="20.907" height="2.1216" opacity=".8" stroke-width="2.5173"/><rect x="13.288" y="69.787" width="12.799" height="2.1216" opacity=".8" stroke-width="2.6056"/><rect x="13.288" y="74.03" width="22.399" height="2.1216" opacity=".8" stroke-width="2.6056"/></g><rect x="52.57" y="31.598" width="8.7158" height="2.1216" opacity=".8" stroke-width="2.1501"/><rect x="51.336" y="27.317" width="5.6694" height="2.1216" opacity=".8" stroke-width="1.7341"/><g><rect x="32.487" y="18.868" width="12.799" height="2.1216" opacity=".8" stroke-width="2.6056"/><rect x="50.032" y="23.111" width="24.054" height="2.1216" opacity=".8" stroke-width="2.7001"/><rect x="60.301" y="27.317" width="13.785" height="2.1216" opacity=".8" stroke-width="2.704"/><rect x="64.486" y="31.598" width="5.7308" height="2.1216" opacity=".8" stroke-width="2.0132"/></g><rect transform="scale(1,-1)" x="70.421" y="-50.692" width="3.5484" height="2.1216" opacity=".8" stroke-width="1.3668"/><g><rect x="53.196" y="61.301" width="8.0897" height="2.1216" opacity=".8" stroke-width="2.0714"/><rect x="29.288" y="69.787" width="7.7149" height="2.1216" opacity=".8" stroke-width="1.4304"/><rect x="38.887" y="74.03" width="22.399" height="2.1216" opacity=".8" stroke-width="2.6056"/><rect x="50.539" y="69.701" width="20.317" height="2.1216" opacity=".8" stroke-width="2.4815"/></g><rect transform="scale(1,-1)" x="38.887" y="-54.936" width="9.5995" height="2.1216" opacity=".8" stroke-width="2.6056"/><rect transform="scale(1,-1)" x="68.489" y="-37.962" width="5.5763" height="2.1216" opacity=".8" stroke-width="2.4322"/><rect transform="scale(1,-1)" x="64.486" y="-63.422" width="9.5995" height="2.1216" opacity=".8" stroke-width="2.6056"/><rect x="54.886" y="65.544" width="19.199" height="2.1216" opacity=".8" stroke-width="2.6056"/></g><g transform="translate(-11.284 3.4993)" fill="#006dad" stroke="#666" stroke-linecap="round" stroke-linejoin="round" stroke-opacity=".2" stroke-width=".016"><g transform="matrix(.90508 0 0 .90508 14.683 7.6654)" opacity=".19961"><rect x="37.429" y="15.925" width="14.984" height="49.984" rx="8.8786" ry="8.8786" style="paint-order:markers fill stroke"/><rect x="16.786" y="28.529" width="14.984" height="24.984" rx="8.8786" ry="8.8786" style="paint-order:markers fill stroke"/><rect x="58.072" y="28.425" width="14.984" height="24.984" rx="8.8786" ry="8.8786" style="paint-order:markers fill stroke"/></g><g transform="matrix(.90508 0 0 .90508 12.95 5.967)"><rect x="37.429" y="15.925" width="14.984" height="49.984" rx="8.8786" ry="8.8786" style="paint-order:markers fill stroke"/><rect x="16.786" y="28.529" width="14.984" height="24.984" rx="8.8786" ry="8.8786" style="paint-order:markers fill stroke"/><rect x="58.072" y="28.425" width="14.984" height="24.984" rx="8.8786" ry="8.8786" style="paint-order:markers fill stroke"/></g></g><g transform="translate(.99652 .26517)"><g transform="matrix(1.2261 0 0 1.2261 -3.5849 -2.4442)"><circle cx="15.852" cy="9.4298" r="2" fill="url(#linearGradient1987)"/><path d="m16.978 9.0461a1.8243 1.8243 0 0 0-1.8243 1.8243 1.8243 1.8243 0 0 0 0.02494 0.28682 1.8243 1.8243 0 0 0 0.7233 0.15321 1.8243 1.8243 0 0 0 1.8243-1.8243 1.8243 1.8243 0 0 0-0.02316-0.29039 1.8243 1.8243 0 0 0-0.72508-0.14965z" fill="#fff"/></g><g transform="matrix(1.2261 0 0 1.2261 13.953 -2.4442)"><circle cx="15.852" cy="9.4298" r="2" fill="url(#linearGradient1987)"/><path d="m16.978 9.0461a1.8243 1.8243 0 0 0-1.8243 1.8243 1.8243 1.8243 0 0 0 0.02494 0.28682 1.8243 1.8243 0 0 0 0.7233 0.15321 1.8243 1.8243 0 0 0 1.8243-1.8243 1.8243 1.8243 0 0 0-0.02316-0.29039 1.8243 1.8243 0 0 0-0.72508-0.14965z" fill="#fff"/></g><g transform="matrix(1.2261 0 0 1.2261 31.49 -2.4442)"><circle cx="15.852" cy="9.4298" r="2" fill="url(#linearGradient1987)"/><path d="m16.978 9.0461a1.8243 1.8243 0 0 0-1.8243 1.8243 1.8243 1.8243 0 0 0 0.02494 0.28682 1.8243 1.8243 0 0 0 0.7233 0.15321 1.8243 1.8243 0 0 0 1.8243-1.8243 1.8243 1.8243 0 0 0-0.02316-0.29039 1.8243 1.8243 0 0 0-0.72508-0.14965z" fill="#fff"/></g><g transform="matrix(1.2261 0 0 1.2261 49.028 -2.4442)"><circle cx="15.852" cy="9.4298" r="2" fill="url(#linearGradient1987)"/><path d="m16.978 9.0461a1.8243 1.8243 0 0 0-1.8243 1.8243 1.8243 1.8243 0 0 0 0.02494 0.28682 1.8243 1.8243 0 0 0 0.7233 0.15321 1.8243 1.8243 0 0 0 1.8243-1.8243 1.8243 1.8243 0 0 0-0.02316-0.29039 1.8243 1.8243 0 0 0-0.72508-0.14965z" fill="#fff"/></g></g></svg>
