<?xml version="1.0" encoding="UTF-8"?>
<svg width="86px" height="86px" enable-background="new 0 0 86 86" version="1.1" viewBox="0 0 86 86" xml:space="preserve" xmlns="http://www.w3.org/2000/svg" xmlns:cc="http://creativecommons.org/ns#" xmlns:dc="http://purl.org/dc/elements/1.1/" xmlns:rdf="http://www.w3.org/1999/02/22-rdf-syntax-ns#" xmlns:xlink="http://www.w3.org/1999/xlink"><metadata><rdf:RDF><cc:Work rdf:about=""><dc:format>image/svg+xml</dc:format><dc:type rdf:resource="http://purl.org/dc/dcmitype/StillImage"/></cc:Work></rdf:RDF></metadata><defs><linearGradient id="SVGID_2_-3" x1=".7169" x2="85.283" y1="85.283" y2=".7169" gradientUnits="userSpaceOnUse"><stop stop-color="#6f6f6f" offset="0"/><stop stop-color="#fff" offset="1"/></linearGradient>
		
<style id="current-color-scheme" type="text/css">
      .ColorScheme-Text {
        color:#4d4d4d;
      }
      </style><style type="text/css">
      .ColorScheme-Text {
        color:#4d4d4d;
      }
      </style><style type="text/css">
      .ColorScheme-Text {
        color:#4d4d4d;
      }
      </style><linearGradient id="linearGradient4491-6" x1="13" x2="13" y1="44.006" y2="3.172" gradientTransform="matrix(1.656 0 0 1.9671 -6.4098 -88.64)" gradientUnits="userSpaceOnUse"><stop stop-opacity=".6008" offset="0"/><stop offset="1"/></linearGradient><linearGradient id="linearGradient1987" x1="9.9981" x2="13.508" y1="12.965" y2="16.458" gradientTransform="matrix(1.3333 0 0 1.3333 .53738 -9.8003)" gradientUnits="userSpaceOnUse" xlink:href="#SVGID_2_-3"/></defs><g fill-rule="evenodd">

<path d="m8.1515 4.7935v76.379h68.847v-76.379z" fill="#dcdcdc" stroke-width="2.284"/><rect x="8.1617" y="79.051" width="68.841" height="2.1224" fill="#1b1b1b" opacity=".427" stroke-width="2.2663"/><path d="m76.997 4.7969 1.7082 1.7822-0.03553 74.595h-1.6727z" fill="#1b1b1b" opacity=".501" stroke-width="2.1192"/></g><rect transform="rotate(90)" x="13.462" y="-76.999" width="1.656" height="68.847" color="#000000" color-rendering="auto" enable-background="accumulate" fill="url(#linearGradient4491-6)" image-rendering="auto" opacity=".27027" shape-rendering="auto" solid-color="#000000" style="isolation:auto;mix-blend-mode:normal"/><g transform="translate(-.44194)" fill="#999" fill-rule="evenodd" opacity=".69918"><rect x="14.392" y="20.77" width="18.236" height="3.7795" opacity="1"/><rect x="51.439" y="20.77" width="16.539" height="3.7795" opacity="1"/><rect x="29.728" y="30.52" width="3.246" height="3.7795" opacity="1"/><rect x="51.803" y="30.52" width="2.6597" height="3.7795" opacity="1"/><rect x="67.521" y="30.52" width="4.1212" height="3.7795" opacity="1"/><rect x="14.392" y="30.52" width="2.7073" height="3.7795" opacity="1"/><rect x="14.392" y="59.772" width="18.205" height="3.7795" opacity="1"/><rect x="52.998" y="59.772" width="8.9509" height="3.7795" opacity="1"/><rect x="66.857" y="59.772" width="4.3984" height="3.7795" opacity="1"/><rect x="14.392" y="69.522" width="13.43" height="3.7795" opacity="1"/><rect x="33.427" y="69.522" width="27.863" height="3.7795" opacity="1"/></g><g transform="translate(-11.898 .10115)" fill="#006dad" stroke="#666" stroke-linecap="round" stroke-linejoin="round" stroke-opacity=".2" stroke-width=".016"><g transform="matrix(.90508 0 0 .90508 14.683 7.6654)" opacity=".19961"><rect x="37.429" y="15.925" width="14.984" height="49.984" rx="8.8786" ry="8.8786" style="paint-order:markers fill stroke"/><rect x="16.786" y="28.529" width="14.984" height="24.984" rx="8.8786" ry="8.8786" style="paint-order:markers fill stroke"/><rect x="58.072" y="28.425" width="14.984" height="24.984" rx="8.8786" ry="8.8786" style="paint-order:markers fill stroke"/></g><g transform="matrix(.90508 0 0 .90508 12.95 5.967)"><rect x="37.429" y="15.925" width="14.984" height="49.984" rx="8.8786" ry="8.8786" style="paint-order:markers fill stroke"/><rect x="16.786" y="28.529" width="14.984" height="24.984" rx="8.8786" ry="8.8786" style="paint-order:markers fill stroke"/><rect x="58.072" y="28.425" width="14.984" height="24.984" rx="8.8786" ry="8.8786" style="paint-order:markers fill stroke"/></g></g><g transform="translate(.38263 .10448)"><g transform="matrix(1.2261 0 0 1.2261 -3.5849 -2.4442)"><circle cx="15.852" cy="9.4298" r="2" fill="url(#linearGradient1987)"/><path d="m16.978 9.0461a1.8243 1.8243 0 0 0-1.8243 1.8243 1.8243 1.8243 0 0 0 0.02494 0.28682 1.8243 1.8243 0 0 0 0.7233 0.15321 1.8243 1.8243 0 0 0 1.8243-1.8243 1.8243 1.8243 0 0 0-0.02316-0.29039 1.8243 1.8243 0 0 0-0.72508-0.14965z" fill="#fff"/></g><g transform="matrix(1.2261 0 0 1.2261 13.953 -2.4442)"><circle cx="15.852" cy="9.4298" r="2" fill="url(#linearGradient1987)"/><path d="m16.978 9.0461a1.8243 1.8243 0 0 0-1.8243 1.8243 1.8243 1.8243 0 0 0 0.02494 0.28682 1.8243 1.8243 0 0 0 0.7233 0.15321 1.8243 1.8243 0 0 0 1.8243-1.8243 1.8243 1.8243 0 0 0-0.02316-0.29039 1.8243 1.8243 0 0 0-0.72508-0.14965z" fill="#fff"/></g><g transform="matrix(1.2261 0 0 1.2261 31.49 -2.4442)"><circle cx="15.852" cy="9.4298" r="2" fill="url(#linearGradient1987)"/><path d="m16.978 9.0461a1.8243 1.8243 0 0 0-1.8243 1.8243 1.8243 1.8243 0 0 0 0.02494 0.28682 1.8243 1.8243 0 0 0 0.7233 0.15321 1.8243 1.8243 0 0 0 1.8243-1.8243 1.8243 1.8243 0 0 0-0.02316-0.29039 1.8243 1.8243 0 0 0-0.72508-0.14965z" fill="#fff"/></g><g transform="matrix(1.2261 0 0 1.2261 49.028 -2.4442)"><circle cx="15.852" cy="9.4298" r="2" fill="url(#linearGradient1987)"/><path d="m16.978 9.0461a1.8243 1.8243 0 0 0-1.8243 1.8243 1.8243 1.8243 0 0 0 0.02494 0.28682 1.8243 1.8243 0 0 0 0.7233 0.15321 1.8243 1.8243 0 0 0 1.8243-1.8243 1.8243 1.8243 0 0 0-0.02316-0.29039 1.8243 1.8243 0 0 0-0.72508-0.14965z" fill="#fff"/></g></g></svg>
